<svg
  width="70px"
  height="70px"
  class="css-1j8o68f"
>
  <defs id="SvgjsDefs24043"></defs>
  <g
    id="SvgjsG24044"
    featurekey="LwVBM5-0"
    transform="matrix(1.143367069616099,0,0,1.143367069616099,6.675555413582482,0.02013828969380338)"
    fill="#3a3a3a"
  >
    <g xmlns="http://www.w3.org/2000/svg">
      <path
        fill="#3a3a3a"
        d="M42.78,28.756c-0.052,0.167-0.116,0.335-0.18,0.502c-0.296,0.695-0.695,1.288-1.262,1.751   c-0.245,1.996-0.683,3.953-1.326,5.859c-0.412,1.21-1.378,1.571-2.511,1.004c-0.283-0.142-0.579-0.258-0.863-0.399   c-2.846-1.352-5.692-2.717-8.538-4.056c-1.095-0.515-2.279-0.657-3.541-0.695c0.051,0.966,0.425,1.764,0.914,2.485   c0.592,0.914,1.082,1.854,1.249,2.936c0.142,0.824-0.283,1.417-1.107,1.571c-0.914,0.167-1.829,0.335-2.756,0.502   c-0.927,0.18-1.494-0.193-1.674-1.133c-0.438-2.279-0.85-4.571-1.275-6.851c-0.026-0.116-0.064-0.258-0.142-0.322   c-0.914-0.708-1.455-1.635-1.803-2.704c-0.013-0.039-0.026-0.077-0.039-0.116c0-0.026-0.013-0.039-0.013-0.064   c-0.296-1.017-0.18-1.996,0.039-2.756c0.232-0.837,0.592-1.416,0.644-1.507c0.013-0.013,0.013-0.013,0.013-0.013   c0.026-0.052,0.051-0.09,0.077-0.142c0.811-1.352,2.022-2.06,3.644-2.035c1.03,0.013,2.073-0.026,3.116-0.052   c1.558-0.051,2.91-0.747,4.275-1.404c2.653-1.275,5.305-2.537,7.971-3.799c0.953-0.451,1.944,0,2.305,1.069   c0.708,2.125,1.185,4.275,1.404,6.464c0.592,0.502,1.004,1.172,1.301,1.957c0,0,0,0,0,0.013   C42.742,26.953,42.986,27.919,42.78,28.756z"
      ></path>
    </g>
  </g>
</svg>
